
<?xml version="1.0" encoding="UTF-8" standalone="no"?>
<!-- Generator: Adobe Illustrator 17.0.0, SVG Export Plug-In . SVG Version: 6.00 Build 0)  -->

<svg
   xmlns:dc="http://purl.org/dc/elements/1.1/"
   xmlns:cc="http://creativecommons.org/ns#"
   xmlns:rdf="http://www.w3.org/1999/02/22-rdf-syntax-ns#"
   xmlns:svg="http://www.w3.org/2000/svg"
   xmlns="http://www.w3.org/2000/svg"
   xmlns:sodipodi="http://sodipodi.sourceforge.net/DTD/sodipodi-0.dtd"
   xmlns:inkscape="http://www.inkscape.org/namespaces/inkscape"
   version="1.1"
   id="Layer_1"
   x="0px"
   y="0px"
   width="662.622px"
   height="51.803px"
   viewBox="0 0 662.622 51.803"
   enable-background="new 0 0 662.622 51.803"
   xml:space="preserve"
   inkscape:version="0.48.4 r9939"
   sodipodi:docname="create_chat.svg"><metadata
     id="metadata37"><rdf:RDF><cc:Work
         rdf:about=""><dc:format>image/svg+xml</dc:format><dc:type
           rdf:resource="http://purl.org/dc/dcmitype/StillImage" /></cc:Work></rdf:RDF></metadata><defs
     id="defs35" /><sodipodi:namedview
     pagecolor="#ffffff"
     bordercolor="#666666"
     borderopacity="1"
     objecttolerance="10"
     gridtolerance="10"
     guidetolerance="10"
     inkscape:pageopacity="0"
     inkscape:pageshadow="2"
     inkscape:window-width="640"
     inkscape:window-height="480"
     id="namedview33"
     showgrid="false"
     inkscape:zoom="1.1781164"
     inkscape:cx="158.16286"
     inkscape:cy="-19.294957"
     inkscape:window-x="0"
     inkscape:window-y="497"
     inkscape:window-maximized="0"
     inkscape:current-layer="Layer_1" /><g
     id="g3"
     style="fill:#ffffff"><path
       d="M46.732,7.951l-0.936,0.936c-4.32-3.816-10.081-6.049-16.345-6.049c-13.465,0-24.482,10.657-24.482,23.762   s11.017,23.834,24.482,23.834c6.265,0,12.025-2.304,16.345-6.121l1.008,0.936c-4.608,4.033-10.729,6.553-17.354,6.553   C15.265,51.803,3.6,40.426,3.6,26.601S15.265,1.47,29.451,1.47C36.075,1.47,42.124,3.918,46.732,7.951z"
       fill="#000000"
       id="path5"
       style="fill:#ffffff" /><path
       fill="#FFFFFF"
       d="M83.234,33.945l13.033,17.857h-1.8L81.65,34.233c-1.44,0.144-2.952,0.288-4.608,0.288H61.416v17.282h-1.44   V1.47h17.065c12.241,0,19.226,5.977,19.226,16.346C96.267,26.457,91.587,32.145,83.234,33.945z M77.042,33.081   c11.305,0,17.786-5.544,17.786-15.265c0-9.505-6.48-14.905-17.786-14.905H61.416v30.17H77.042z"
       id="path7"
       style="fill:#ffffff" /><path
       fill="#FFFFFF"
       d="M113.398,2.911v22.25h26.714v1.44h-26.714v23.762h31.035v1.44h-32.475V1.47h31.467v1.44H113.398z"
       id="path9"
       style="fill:#ffffff" /><path
       fill="#FFFFFF"
       d="M158.542,36.465l-6.984,15.337h-1.728L172.872,1.47h1.584l23.33,50.333h-1.656l-7.057-15.337H158.542z    M173.664,3.126l-14.473,31.899h29.234L173.664,3.126z"
       id="path11"
       style="fill:#ffffff" /><path
       fill="#FFFFFF"
       d="M213.839,2.911v48.892h-1.44V2.911h-17.282V1.47h36.003v1.44H213.839z"
       id="path13"
       style="fill:#ffffff" /><path
       fill="#FFFFFF"
       d="M242.709,2.911v22.25h26.714v1.44h-26.714v23.762h31.035v1.44h-32.475V1.47h31.467v1.44H242.709z"
       id="path15"
       style="fill:#ffffff" /><path
       fill="#FFFFFF"
       d="M347.615,8.599l-3.456,4.392c-3.888-3.96-9.36-6.336-14.905-6.336c-11.377,0-20.521,8.785-20.521,19.874   c0,11.017,9.145,19.874,20.521,19.874c5.545,0,10.945-2.304,14.905-6.049l3.528,3.96c-4.969,4.681-11.737,7.777-18.722,7.777   c-14.545,0-26.066-11.305-26.066-25.563c0-14.113,11.665-25.274,26.282-25.274C336.094,1.254,342.791,4.063,347.615,8.599z"
       id="path17"
       style="fill:#ffffff" /><path
       fill="#FFFFFF"
       d="M394.198,51.803V29.625h-30.386v22.178h-5.761V1.398h5.761v22.754h30.386V1.398h5.761v50.404H394.198z"
       id="path19"
       style="fill:#ffffff" /><path
       fill="#FFFFFF"
       d="M419.612,39.058l-5.617,12.745h-6.12l22.61-50.404h5.976l22.538,50.404h-6.265l-5.616-12.745H419.612z    M433.292,7.951L422.06,33.513h22.609L433.292,7.951z"
       id="path21"
       style="fill:#ffffff" /><path
       fill="#FFFFFF"
       d="M477.572,6.943v44.86h-5.76V6.943h-16.418V1.398h38.667v5.544H477.572z"
       id="path23"
       style="fill:#ffffff" /><path
       fill="#FFFFFF"
       d="M530.277,46.33v5.473h-27.866V1.398h5.761V46.33H530.277z"
       id="path25"
       style="fill:#ffffff" /><path
       fill="#FFFFFF"
       d="M539.635,51.803V1.398h5.761v50.404H539.635z"
       id="path27"
       style="fill:#ffffff" /><path
       fill="#FFFFFF"
       d="M596.662,51.803l-30.242-40.467v40.467h-5.761V1.398h5.977l30.242,40.54V1.398h5.688v50.404H596.662z"
       id="path29"
       style="fill:#ffffff" /><path
       d="M633.451,27.896l-9.792,10.729v13.177h-5.761V1.398h5.761v29.019l27.074-29.019h6.84l-19.945,21.89   l21.458,28.515h-7.057L633.451,27.896z"
       fill="#000000"
       id="path31"
       style="fill:#ffffff" /></g></svg>
